G04 (created by PCBNEW (22-Jun-2014 BZR 4027)-stable) date Mon 16 May 2016 20:18:32 BST*
%MOIN*%
G04 Gerber Fmt 3.4, Leading zero omitted, Abs format*
%FSLAX34Y34*%
G01*
G70*
G90*
G04 APERTURE LIST*
%ADD10C,0.00590551*%
%ADD11C,0.066*%
%ADD12C,0.0669291*%
%ADD13C,0.0511811*%
%ADD14R,0.055X0.055*%
%ADD15C,0.055*%
%ADD16C,0.0393701*%
%ADD17C,0.16*%
G04 APERTURE END LIST*
G54D10*
G54D11*
X78900Y-74250D03*
X79900Y-74250D03*
X72900Y-76100D03*
X73900Y-76100D03*
G54D12*
X84995Y-67840D03*
X90355Y-67840D03*
G54D13*
X86275Y-74750D03*
X89075Y-74750D03*
X77400Y-74250D03*
X76400Y-74250D03*
X77400Y-68250D03*
X75400Y-74250D03*
X74400Y-74250D03*
X73400Y-74250D03*
X72400Y-74250D03*
X71400Y-74250D03*
X70400Y-74250D03*
X69400Y-74250D03*
X68400Y-74250D03*
X67400Y-74250D03*
X66400Y-74250D03*
X76400Y-68250D03*
X75400Y-68250D03*
X74400Y-68250D03*
X73400Y-68250D03*
X72400Y-68250D03*
X71400Y-68250D03*
X70400Y-68250D03*
X69400Y-68250D03*
X68400Y-68250D03*
X67400Y-68250D03*
X66400Y-68250D03*
G54D14*
X81375Y-73200D03*
G54D15*
X81375Y-76200D03*
G54D13*
X79050Y-68250D03*
X80050Y-68250D03*
G54D16*
X70850Y-76100D03*
X71550Y-76100D03*
X70150Y-76100D03*
G54D13*
X91950Y-70375D03*
X91950Y-76475D03*
X83450Y-70375D03*
X83450Y-76475D03*
X82425Y-68250D03*
X81425Y-68250D03*
G54D17*
X67600Y-76075D03*
X94550Y-76075D03*
G54D13*
X81275Y-71400D03*
X80275Y-71400D03*
M02*
