G04 (created by PCBNEW (22-Jun-2014 BZR 4027)-stable) date Mon 16 May 2016 20:18:32 BST*
%MOIN*%
G04 Gerber Fmt 3.4, Leading zero omitted, Abs format*
%FSLAX34Y34*%
G01*
G70*
G90*
G04 APERTURE LIST*
%ADD10C,0.00590551*%
%ADD11C,0.011811*%
%ADD12C,0.0001*%
G04 APERTURE END LIST*
G54D10*
G54D11*
X94654Y-70212D02*
X94626Y-70240D01*
X94598Y-70296D01*
X94598Y-70437D01*
X94626Y-70493D01*
X94654Y-70521D01*
X94710Y-70550D01*
X94767Y-70550D01*
X94851Y-70521D01*
X95189Y-70184D01*
X95189Y-70550D01*
X94598Y-70915D02*
X94598Y-70971D01*
X94626Y-71028D01*
X94654Y-71056D01*
X94710Y-71084D01*
X94823Y-71112D01*
X94964Y-71112D01*
X95076Y-71084D01*
X95132Y-71056D01*
X95160Y-71028D01*
X95189Y-70971D01*
X95189Y-70915D01*
X95160Y-70859D01*
X95132Y-70831D01*
X95076Y-70803D01*
X94964Y-70775D01*
X94823Y-70775D01*
X94710Y-70803D01*
X94654Y-70831D01*
X94626Y-70859D01*
X94598Y-70915D01*
X95189Y-71674D02*
X95189Y-71337D01*
X95189Y-71506D02*
X94598Y-71506D01*
X94682Y-71449D01*
X94739Y-71393D01*
X94767Y-71337D01*
X94598Y-72181D02*
X94598Y-72068D01*
X94626Y-72012D01*
X94654Y-71984D01*
X94739Y-71928D01*
X94851Y-71899D01*
X95076Y-71899D01*
X95132Y-71928D01*
X95160Y-71956D01*
X95189Y-72012D01*
X95189Y-72124D01*
X95160Y-72181D01*
X95132Y-72209D01*
X95076Y-72237D01*
X94935Y-72237D01*
X94879Y-72209D01*
X94851Y-72181D01*
X94823Y-72124D01*
X94823Y-72012D01*
X94851Y-71956D01*
X94879Y-71928D01*
X94935Y-71899D01*
X95829Y-70383D02*
X95829Y-70186D01*
X96139Y-70186D02*
X95548Y-70186D01*
X95548Y-70467D01*
X96139Y-70945D02*
X95829Y-70945D01*
X95773Y-70917D01*
X95745Y-70861D01*
X95745Y-70748D01*
X95773Y-70692D01*
X96110Y-70945D02*
X96139Y-70889D01*
X96139Y-70748D01*
X96110Y-70692D01*
X96054Y-70664D01*
X95998Y-70664D01*
X95942Y-70692D01*
X95914Y-70748D01*
X95914Y-70889D01*
X95885Y-70945D01*
X96110Y-71479D02*
X96139Y-71423D01*
X96139Y-71311D01*
X96110Y-71254D01*
X96082Y-71226D01*
X96026Y-71198D01*
X95857Y-71198D01*
X95801Y-71226D01*
X95773Y-71254D01*
X95745Y-71311D01*
X95745Y-71423D01*
X95773Y-71479D01*
X96110Y-71957D02*
X96139Y-71901D01*
X96139Y-71789D01*
X96110Y-71732D01*
X96054Y-71704D01*
X95829Y-71704D01*
X95773Y-71732D01*
X95745Y-71789D01*
X95745Y-71901D01*
X95773Y-71957D01*
X95829Y-71986D01*
X95885Y-71986D01*
X95942Y-71704D01*
X96139Y-72323D02*
X96110Y-72267D01*
X96054Y-72239D01*
X95548Y-72239D01*
X96110Y-72773D02*
X96139Y-72717D01*
X96139Y-72604D01*
X96110Y-72548D01*
X96054Y-72520D01*
X95829Y-72520D01*
X95773Y-72548D01*
X95745Y-72604D01*
X95745Y-72717D01*
X95773Y-72773D01*
X95829Y-72801D01*
X95885Y-72801D01*
X95942Y-72520D01*
X96110Y-73026D02*
X96139Y-73082D01*
X96139Y-73195D01*
X96110Y-73251D01*
X96054Y-73279D01*
X96026Y-73279D01*
X95970Y-73251D01*
X95942Y-73195D01*
X95942Y-73110D01*
X95914Y-73054D01*
X95857Y-73026D01*
X95829Y-73026D01*
X95773Y-73054D01*
X95745Y-73110D01*
X95745Y-73195D01*
X95773Y-73251D01*
X96110Y-73504D02*
X96139Y-73560D01*
X96139Y-73673D01*
X96110Y-73729D01*
X96054Y-73757D01*
X96026Y-73757D01*
X95970Y-73729D01*
X95942Y-73673D01*
X95942Y-73588D01*
X95914Y-73532D01*
X95857Y-73504D01*
X95829Y-73504D01*
X95773Y-73532D01*
X95745Y-73588D01*
X95745Y-73673D01*
X95773Y-73729D01*
X95745Y-73926D02*
X95745Y-74151D01*
X95548Y-74010D02*
X96054Y-74010D01*
X96110Y-74038D01*
X96139Y-74095D01*
X96139Y-74151D01*
X96110Y-74573D02*
X96139Y-74516D01*
X96139Y-74404D01*
X96110Y-74348D01*
X96054Y-74320D01*
X95829Y-74320D01*
X95773Y-74348D01*
X95745Y-74404D01*
X95745Y-74516D01*
X95773Y-74573D01*
X95829Y-74601D01*
X95885Y-74601D01*
X95942Y-74320D01*
X96110Y-75107D02*
X96139Y-75051D01*
X96139Y-74938D01*
X96110Y-74882D01*
X96082Y-74854D01*
X96026Y-74826D01*
X95857Y-74826D01*
X95801Y-74854D01*
X95773Y-74882D01*
X95745Y-74938D01*
X95745Y-75051D01*
X95773Y-75107D01*
X96139Y-75360D02*
X95548Y-75360D01*
X96139Y-75613D02*
X95829Y-75613D01*
X95773Y-75585D01*
X95745Y-75529D01*
X95745Y-75444D01*
X95773Y-75388D01*
X95801Y-75360D01*
G54D12*
G36*
X95978Y-69803D02*
X95978Y-69760D01*
X94770Y-69760D01*
X94716Y-69760D01*
X94659Y-69760D01*
X94615Y-69760D01*
X94582Y-69759D01*
X94559Y-69758D01*
X94544Y-69756D01*
X94535Y-69754D01*
X94532Y-69751D01*
X94530Y-69741D01*
X94525Y-69720D01*
X94519Y-69689D01*
X94511Y-69650D01*
X94503Y-69606D01*
X94498Y-69577D01*
X94489Y-69531D01*
X94481Y-69489D01*
X94474Y-69454D01*
X94468Y-69428D01*
X94465Y-69413D01*
X94463Y-69409D01*
X94455Y-69405D01*
X94436Y-69396D01*
X94409Y-69384D01*
X94377Y-69370D01*
X94342Y-69355D01*
X94306Y-69340D01*
X94272Y-69326D01*
X94243Y-69314D01*
X94221Y-69306D01*
X94208Y-69301D01*
X94207Y-69301D01*
X94197Y-69305D01*
X94178Y-69315D01*
X94154Y-69331D01*
X94131Y-69346D01*
X94069Y-69390D01*
X94017Y-69425D01*
X93976Y-69452D01*
X93945Y-69472D01*
X93923Y-69485D01*
X93910Y-69491D01*
X93908Y-69492D01*
X93900Y-69487D01*
X93884Y-69474D01*
X93862Y-69454D01*
X93835Y-69428D01*
X93805Y-69400D01*
X93774Y-69369D01*
X93743Y-69338D01*
X93714Y-69309D01*
X93689Y-69283D01*
X93669Y-69262D01*
X93657Y-69247D01*
X93653Y-69241D01*
X93657Y-69233D01*
X93668Y-69215D01*
X93684Y-69189D01*
X93706Y-69157D01*
X93731Y-69119D01*
X93752Y-69089D01*
X93779Y-69048D01*
X93804Y-69012D01*
X93824Y-68981D01*
X93839Y-68957D01*
X93848Y-68941D01*
X93851Y-68936D01*
X93848Y-68926D01*
X93841Y-68905D01*
X93830Y-68877D01*
X93816Y-68844D01*
X93802Y-68808D01*
X93786Y-68773D01*
X93772Y-68741D01*
X93759Y-68714D01*
X93750Y-68695D01*
X93744Y-68686D01*
X93744Y-68686D01*
X93734Y-68683D01*
X93713Y-68678D01*
X93682Y-68672D01*
X93643Y-68664D01*
X93599Y-68656D01*
X93575Y-68651D01*
X93529Y-68643D01*
X93486Y-68634D01*
X93450Y-68627D01*
X93422Y-68621D01*
X93404Y-68617D01*
X93400Y-68616D01*
X93395Y-68613D01*
X93392Y-68610D01*
X93389Y-68603D01*
X93387Y-68592D01*
X93386Y-68575D01*
X93385Y-68550D01*
X93385Y-68515D01*
X93384Y-68469D01*
X93384Y-68433D01*
X93385Y-68382D01*
X93385Y-68337D01*
X93387Y-68300D01*
X93388Y-68272D01*
X93390Y-68256D01*
X93391Y-68252D01*
X93399Y-68250D01*
X93420Y-68245D01*
X93450Y-68239D01*
X93489Y-68231D01*
X93533Y-68223D01*
X93570Y-68216D01*
X93617Y-68207D01*
X93661Y-68198D01*
X93698Y-68190D01*
X93726Y-68183D01*
X93744Y-68178D01*
X93749Y-68175D01*
X93756Y-68165D01*
X93765Y-68145D01*
X93777Y-68117D01*
X93791Y-68084D01*
X93805Y-68048D01*
X93819Y-68013D01*
X93832Y-67980D01*
X93841Y-67952D01*
X93847Y-67932D01*
X93849Y-67923D01*
X93844Y-67915D01*
X93832Y-67896D01*
X93815Y-67870D01*
X93793Y-67837D01*
X93768Y-67799D01*
X93749Y-67773D01*
X93722Y-67733D01*
X93698Y-67698D01*
X93678Y-67667D01*
X93663Y-67643D01*
X93655Y-67629D01*
X93653Y-67625D01*
X93658Y-67617D01*
X93671Y-67601D01*
X93692Y-67579D01*
X93719Y-67551D01*
X93751Y-67518D01*
X93776Y-67493D01*
X93817Y-67452D01*
X93850Y-67420D01*
X93875Y-67397D01*
X93893Y-67383D01*
X93905Y-67375D01*
X93912Y-67374D01*
X93921Y-67379D01*
X93940Y-67390D01*
X93968Y-67408D01*
X94001Y-67430D01*
X94038Y-67455D01*
X94060Y-67470D01*
X94099Y-67496D01*
X94135Y-67520D01*
X94166Y-67540D01*
X94189Y-67554D01*
X94204Y-67562D01*
X94208Y-67563D01*
X94218Y-67560D01*
X94238Y-67553D01*
X94266Y-67542D01*
X94299Y-67528D01*
X94335Y-67514D01*
X94371Y-67499D01*
X94403Y-67484D01*
X94431Y-67472D01*
X94451Y-67462D01*
X94461Y-67457D01*
X94461Y-67457D01*
X94464Y-67448D01*
X94469Y-67428D01*
X94476Y-67398D01*
X94484Y-67360D01*
X94492Y-67316D01*
X94498Y-67287D01*
X94507Y-67240D01*
X94515Y-67198D01*
X94522Y-67162D01*
X94527Y-67134D01*
X94531Y-67117D01*
X94532Y-67113D01*
X94540Y-67110D01*
X94560Y-67107D01*
X94589Y-67106D01*
X94625Y-67104D01*
X94667Y-67103D01*
X94710Y-67103D01*
X94754Y-67103D01*
X94796Y-67103D01*
X94833Y-67105D01*
X94864Y-67107D01*
X94885Y-67109D01*
X94895Y-67112D01*
X94895Y-67112D01*
X94898Y-67122D01*
X94903Y-67143D01*
X94910Y-67173D01*
X94918Y-67212D01*
X94926Y-67256D01*
X94931Y-67280D01*
X94939Y-67325D01*
X94948Y-67367D01*
X94956Y-67402D01*
X94962Y-67428D01*
X94967Y-67444D01*
X94969Y-67447D01*
X94978Y-67452D01*
X94998Y-67461D01*
X95026Y-67473D01*
X95059Y-67488D01*
X95096Y-67502D01*
X95133Y-67517D01*
X95168Y-67531D01*
X95198Y-67543D01*
X95222Y-67551D01*
X95236Y-67555D01*
X95238Y-67556D01*
X95246Y-67552D01*
X95264Y-67541D01*
X95290Y-67524D01*
X95322Y-67503D01*
X95359Y-67478D01*
X95379Y-67464D01*
X95418Y-67437D01*
X95453Y-67414D01*
X95484Y-67395D01*
X95507Y-67381D01*
X95521Y-67373D01*
X95525Y-67372D01*
X95532Y-67377D01*
X95548Y-67390D01*
X95570Y-67410D01*
X95597Y-67435D01*
X95627Y-67464D01*
X95658Y-67494D01*
X95689Y-67525D01*
X95718Y-67554D01*
X95743Y-67580D01*
X95763Y-67601D01*
X95776Y-67615D01*
X95780Y-67622D01*
X95776Y-67629D01*
X95766Y-67646D01*
X95749Y-67671D01*
X95728Y-67703D01*
X95703Y-67739D01*
X95688Y-67761D01*
X95662Y-67800D01*
X95639Y-67835D01*
X95619Y-67865D01*
X95605Y-67888D01*
X95597Y-67902D01*
X95596Y-67905D01*
X95599Y-67915D01*
X95608Y-67934D01*
X95620Y-67959D01*
X95629Y-67976D01*
X95644Y-68006D01*
X95653Y-68026D01*
X95653Y-68041D01*
X95644Y-68052D01*
X95625Y-68062D01*
X95593Y-68075D01*
X95589Y-68077D01*
X95570Y-68085D01*
X95539Y-68097D01*
X95500Y-68113D01*
X95453Y-68132D01*
X95402Y-68154D01*
X95347Y-68176D01*
X95312Y-68191D01*
X95259Y-68213D01*
X95209Y-68233D01*
X95166Y-68250D01*
X95129Y-68265D01*
X95101Y-68276D01*
X95083Y-68282D01*
X95078Y-68284D01*
X95069Y-68278D01*
X95055Y-68264D01*
X95038Y-68243D01*
X95031Y-68234D01*
X94982Y-68175D01*
X94930Y-68130D01*
X94875Y-68097D01*
X94815Y-68076D01*
X94748Y-68066D01*
X94712Y-68065D01*
X94640Y-68071D01*
X94574Y-68090D01*
X94513Y-68123D01*
X94458Y-68168D01*
X94442Y-68185D01*
X94400Y-68242D01*
X94370Y-68304D01*
X94352Y-68369D01*
X94347Y-68435D01*
X94353Y-68502D01*
X94372Y-68566D01*
X94402Y-68627D01*
X94445Y-68682D01*
X94463Y-68701D01*
X94520Y-68746D01*
X94580Y-68777D01*
X94645Y-68796D01*
X94716Y-68802D01*
X94717Y-68802D01*
X94788Y-68795D01*
X94855Y-68776D01*
X94916Y-68744D01*
X94972Y-68698D01*
X95024Y-68640D01*
X95036Y-68624D01*
X95052Y-68603D01*
X95066Y-68588D01*
X95076Y-68581D01*
X95077Y-68580D01*
X95087Y-68583D01*
X95107Y-68590D01*
X95134Y-68601D01*
X95166Y-68614D01*
X95170Y-68615D01*
X95199Y-68627D01*
X95238Y-68644D01*
X95285Y-68663D01*
X95337Y-68685D01*
X95392Y-68708D01*
X95447Y-68730D01*
X95451Y-68732D01*
X95501Y-68753D01*
X95546Y-68772D01*
X95586Y-68789D01*
X95618Y-68803D01*
X95641Y-68813D01*
X95654Y-68819D01*
X95655Y-68820D01*
X95655Y-68829D01*
X95648Y-68847D01*
X95637Y-68873D01*
X95629Y-68889D01*
X95615Y-68917D01*
X95604Y-68940D01*
X95597Y-68956D01*
X95596Y-68961D01*
X95600Y-68969D01*
X95611Y-68987D01*
X95627Y-69013D01*
X95648Y-69045D01*
X95673Y-69081D01*
X95680Y-69092D01*
X95706Y-69129D01*
X95729Y-69164D01*
X95749Y-69193D01*
X95763Y-69215D01*
X95772Y-69228D01*
X95773Y-69230D01*
X95775Y-69236D01*
X95774Y-69242D01*
X95770Y-69250D01*
X95762Y-69262D01*
X95747Y-69278D01*
X95726Y-69301D01*
X95697Y-69330D01*
X95659Y-69369D01*
X95659Y-69369D01*
X95622Y-69405D01*
X95589Y-69437D01*
X95562Y-69462D01*
X95540Y-69481D01*
X95527Y-69490D01*
X95524Y-69492D01*
X95514Y-69488D01*
X95495Y-69477D01*
X95468Y-69461D01*
X95435Y-69439D01*
X95398Y-69414D01*
X95377Y-69400D01*
X95339Y-69374D01*
X95304Y-69351D01*
X95275Y-69331D01*
X95253Y-69317D01*
X95240Y-69309D01*
X95238Y-69308D01*
X95229Y-69311D01*
X95209Y-69318D01*
X95182Y-69329D01*
X95149Y-69341D01*
X95113Y-69356D01*
X95077Y-69371D01*
X95042Y-69385D01*
X95011Y-69398D01*
X94988Y-69408D01*
X94974Y-69415D01*
X94972Y-69416D01*
X94967Y-69422D01*
X94963Y-69435D01*
X94957Y-69455D01*
X94950Y-69484D01*
X94942Y-69522D01*
X94933Y-69572D01*
X94921Y-69634D01*
X94914Y-69672D01*
X94909Y-69702D01*
X94904Y-69727D01*
X94900Y-69744D01*
X94899Y-69748D01*
X94897Y-69752D01*
X94893Y-69755D01*
X94883Y-69757D01*
X94868Y-69758D01*
X94845Y-69759D01*
X94813Y-69760D01*
X94770Y-69760D01*
X95978Y-69760D01*
X95978Y-68425D01*
X95978Y-67047D01*
X94600Y-67047D01*
X93222Y-67047D01*
X93222Y-68425D01*
X93222Y-69803D01*
X94600Y-69803D01*
X95978Y-69803D01*
X95978Y-69803D01*
X95978Y-69803D01*
G37*
M02*
