G04 (created by PCBNEW (22-Jun-2014 BZR 4027)-stable) date Mon 16 May 2016 20:18:32 BST*
%MOIN*%
G04 Gerber Fmt 3.4, Leading zero omitted, Abs format*
%FSLAX34Y34*%
G01*
G70*
G90*
G04 APERTURE LIST*
%ADD10C,0.00590551*%
%ADD11C,0.066*%
%ADD12C,0.0669291*%
%ADD13C,0.0511811*%
%ADD14R,0.055X0.055*%
%ADD15C,0.055*%
%ADD16C,0.0393701*%
%ADD17C,0.16*%
%ADD18C,0.01*%
G04 APERTURE END LIST*
G54D10*
G54D11*
X78900Y-74250D03*
X79900Y-74250D03*
X72900Y-76100D03*
X73900Y-76100D03*
G54D12*
X84995Y-67840D03*
X90355Y-67840D03*
G54D13*
X86275Y-74750D03*
X89075Y-74750D03*
X77400Y-74250D03*
X76400Y-74250D03*
X77400Y-68250D03*
X75400Y-74250D03*
X74400Y-74250D03*
X73400Y-74250D03*
X72400Y-74250D03*
X71400Y-74250D03*
X70400Y-74250D03*
X69400Y-74250D03*
X68400Y-74250D03*
X67400Y-74250D03*
X66400Y-74250D03*
X76400Y-68250D03*
X75400Y-68250D03*
X74400Y-68250D03*
X73400Y-68250D03*
X72400Y-68250D03*
X71400Y-68250D03*
X70400Y-68250D03*
X69400Y-68250D03*
X68400Y-68250D03*
X67400Y-68250D03*
X66400Y-68250D03*
G54D14*
X81375Y-73200D03*
G54D15*
X81375Y-76200D03*
G54D13*
X79050Y-68250D03*
X80050Y-68250D03*
G54D16*
X70850Y-76100D03*
X71550Y-76100D03*
X70150Y-76100D03*
G54D13*
X91950Y-70375D03*
X91950Y-76475D03*
X83450Y-70375D03*
X83450Y-76475D03*
X82425Y-68250D03*
X81425Y-68250D03*
G54D17*
X67600Y-76075D03*
X94550Y-76075D03*
G54D13*
X81275Y-71400D03*
X80275Y-71400D03*
G54D18*
X91950Y-76475D02*
X89950Y-76475D01*
X80700Y-73925D02*
X79975Y-73200D01*
X80700Y-76875D02*
X80700Y-73925D01*
X80825Y-77000D02*
X80700Y-76875D01*
X89425Y-77000D02*
X80825Y-77000D01*
X89950Y-76475D02*
X89425Y-77000D01*
X81375Y-73200D02*
X79975Y-73200D01*
X79975Y-73200D02*
X71150Y-73200D01*
X71150Y-73200D02*
X69900Y-71950D01*
X69400Y-68250D02*
X69900Y-68750D01*
X69900Y-69450D02*
X69900Y-68750D01*
X69900Y-74700D02*
X69900Y-71950D01*
X69900Y-71950D02*
X69900Y-69450D01*
X70150Y-74950D02*
X69900Y-74700D01*
X70150Y-76100D02*
X70150Y-74950D01*
X77400Y-74250D02*
X78900Y-74250D01*
X86275Y-74750D02*
X83700Y-74750D01*
X82250Y-76200D02*
X81375Y-76200D01*
X83700Y-74750D02*
X82250Y-76200D01*
X70850Y-76100D02*
X70850Y-75350D01*
X70850Y-75350D02*
X71250Y-74950D01*
X71250Y-74950D02*
X72700Y-74950D01*
X72700Y-74950D02*
X73400Y-74250D01*
X83450Y-76475D02*
X86650Y-76475D01*
X87700Y-73800D02*
X86175Y-72275D01*
X87700Y-75425D02*
X87700Y-73800D01*
X86650Y-76475D02*
X87700Y-75425D01*
X80275Y-71400D02*
X80275Y-71775D01*
X90355Y-70570D02*
X90355Y-67840D01*
X88650Y-72275D02*
X90355Y-70570D01*
X80775Y-72275D02*
X86175Y-72275D01*
X86175Y-72275D02*
X88650Y-72275D01*
X80275Y-71775D02*
X80775Y-72275D01*
X81275Y-71400D02*
X83550Y-71400D01*
X82375Y-69200D02*
X81425Y-68250D01*
X83700Y-69200D02*
X82375Y-69200D01*
X84475Y-69975D02*
X83700Y-69200D01*
X84475Y-70475D02*
X84475Y-69975D01*
X83550Y-71400D02*
X84475Y-70475D01*
X77400Y-68250D02*
X79050Y-68250D01*
X82425Y-68250D02*
X84585Y-68250D01*
X84585Y-68250D02*
X84995Y-67840D01*
X83450Y-70375D02*
X81900Y-70375D01*
X81625Y-67450D02*
X82425Y-68250D01*
X80900Y-67450D02*
X81625Y-67450D01*
X80750Y-67600D02*
X80900Y-67450D01*
X80750Y-69225D02*
X80750Y-67600D01*
X81900Y-70375D02*
X80750Y-69225D01*
X71550Y-76100D02*
X72900Y-76100D01*
M02*
