M48
METRIC,TZ
T1C0.600
T2C0.813
T3C1.000
T4C1.300
T5C3.048
%
G90
G05
T1
X178181Y-193294
X179959Y-193294
X181737Y-193294
T2
X185166Y-193294
X187706Y-193294
X200406Y-188595
X202946Y-188595
X206693Y-185928
X206693Y-193548
T3
X168656Y-173355
X168656Y-188595
X171196Y-173355
X171196Y-188595
X173736Y-173355
X173736Y-188595
X176276Y-173355
X176276Y-188595
X178816Y-173355
X178816Y-188595
X181356Y-173355
X181356Y-188595
X183896Y-173355
X183896Y-188595
X186436Y-173355
X186436Y-188595
X188976Y-173355
X188976Y-188595
X191516Y-173355
X191516Y-188595
X194056Y-173355
X194056Y-188595
X196596Y-173355
X196596Y-188595
X200787Y-173355
X203327Y-173355
X203899Y-181356
X206439Y-181356
X206819Y-173355
X209359Y-173355
X211963Y-178753
X211963Y-194246
X219139Y-189865
X226251Y-189865
X233553Y-178753
X233553Y-194246
T4
X215887Y-172314
X229502Y-172314
T5
X171704Y-193231
X240157Y-193231
T0
M30
